Coordinates
version=1
nRows=24
nColumns=24
inDegrees=yes

Units are S.I. units (second, meters, Newtons, ...)
Angles are in degrees.

endheader
time	pelvis_tilt	pelvis_list	pelvis_rotation	pelvis_tx	pelvis_ty	pelvis_tz	hip_flexion_r	hip_adduction_r	hip_rotation_r	knee_angle_r	ankle_angle_r	subtalar_angle_r	mtp_angle_r	hip_flexion_l	hip_adduction_l	hip_rotation_l	knee_angle_l	ankle_angle_l	subtalar_angle_l	mtp_angle_l	lumbar_extension	lumbar_bending	lumbar_rotation
      4.91000000	    -17.71450687	      5.34566179	     -0.37768019	     -0.71474744	     -0.01917402	     -0.31523636	     33.64670865	     -5.84916014	      0.18217061	    -61.18274190	     -1.45557525	     -8.35129188	     23.88141754	     27.44539934	      6.56516182	     -7.48928343	    -23.14540381	      6.44922867	     -3.69949889	      2.27334741	     18.36348476	     -7.40888669	     -9.96460407
      4.91500000	    -17.63232522	      5.12934876	     -0.27255609	     -0.70848235	     -0.01806168	     -0.31568714	     34.16638164	     -5.63361945	     -0.15481313	    -60.53438528	     -0.77326207	     -8.49024105	     22.33077227	     26.59708277	      6.48765205	     -7.29120727	    -22.58128704	      6.55404879	     -3.61077294	      2.14660594	     18.26037413	     -7.23344853	    -10.23612466
      4.92000000	    -17.68817041	      4.85524017	     -0.16475408	     -0.70230350	     -0.01709316	     -0.31613165	     34.81055647	     -5.35917595	     -0.51577980	    -59.73722771	     -0.29591393	     -8.99220907	     22.00273301	     25.91973893	      6.33502306	     -7.10261992	    -22.04003590	      6.61121569	     -3.53978507	      2.11668842	     18.29240565	     -6.99958365	    -10.54888856
      4.92500000	    -17.69401436	      4.58707069	     -0.06318579	     -0.69611107	     -0.01615852	     -0.31657105	     35.38112703	     -5.10821592	     -0.89095767	    -58.88657990	      0.16190887	     -9.41730237	     21.56888695	     25.17458230	      6.18455520	     -6.88378599	    -21.47534974	      6.71727067	     -3.43441503	      2.11017455	     18.27501944	     -6.77227333	    -10.83533016
      4.93000000	    -17.58280021	      4.36590850	      0.08844376	     -0.68989189	     -0.01514655	     -0.31703425	     35.79477745	     -4.95839105	     -1.33289765	    -58.02089200	      0.66704731	     -9.62174689	     20.15035240	     24.29977179	      6.08390004	     -6.73190613	    -20.89509216	      6.75716607	     -3.21932950	      2.19948560	     18.12383111	     -6.60756272	    -11.19023725
      4.93500000	    -17.68343594	      4.12767531	      0.10161684	     -0.68377291	     -0.01445623	     -0.31735713	     36.46417258	     -4.68705389	     -1.61425309	    -57.06557132	      1.00767180	    -10.05839932	     19.80317955	     23.66994190	      5.91076039	     -6.63496446	    -20.33756319	      6.82709515	     -3.18238155	      2.17739661	     18.21016068	     -6.37213607	    -11.36786580
      4.94000000	    -17.67872899	      3.85007544	      0.24173765	     -0.67764967	     -0.01365900	     -0.31778493	     36.95082477	     -4.48507950	     -2.08720635	    -56.02450323	      1.32303673	    -10.46309391	     19.18923401	     22.94687589	      5.72536757	     -6.52721599	    -19.81221846	      6.87609111	     -2.94757616	      2.24445648	     18.16220520	     -6.14211420	    -11.71522368
      4.94500000	    -17.59064678	      3.67757352	      0.32238610	     -0.67147547	     -0.01291567	     -0.31811070	     37.36724027	     -4.36539674	     -2.48973482	    -55.02996309	      1.71370260	    -10.55973814	     17.70809645	     22.09056510	      5.61801381	     -6.47036829	    -19.20313426	      6.93049243	     -2.67890003	      2.49429008	     18.04057865	     -6.00391161	    -11.93069189
      4.95000000	    -17.67019647	      3.46338633	      0.38394710	     -0.66540785	     -0.01239316	     -0.31840155	     37.94730964	     -4.17116485	     -2.83417798	    -53.92340545	      1.96888966	    -10.85189033	     17.18536910	     21.45530866	      5.45698626	     -6.41898216	    -18.66187738	      6.98133619	     -2.49186686	      2.57297378	     18.08801062	     -5.81650276	    -12.21253626
      4.95500000	    -17.69575059	      3.24373236	      0.43514214	     -0.65931747	     -0.01186396	     -0.31871225	     38.43922809	     -3.99634163	     -3.22354586	    -52.75239276	      2.22456091	    -11.01908147	     16.73857566	     20.76313804	      5.28146562	     -6.43309927	    -18.12132762	      7.02561048	     -2.26756932	      2.66205354	     18.07929781	     -5.61146332	    -12.42642286
      4.96000000	    -17.66646863	      3.07360022	      0.50071247	     -0.65321908	     -0.01137165	     -0.31896253	     38.85998175	     -3.87559386	     -3.60600897	    -51.56738249	      2.47650372	    -11.13568907	     16.08597616	     19.99569868	      5.15014075	     -6.42286674	    -17.55132030	      7.09361917	     -1.93948471	      2.86252357	     18.01103248	     -5.47205799	    -12.65150436
      4.96500000	    -17.69718696	      2.88722335	      0.54805694	     -0.64713882	     -0.01099405	     -0.31922134	     39.32414634	     -3.73965218	     -3.99326709	    -50.32279136	      2.70326495	    -11.16811542	     15.60945966	     19.31578790	      4.99632978	     -6.46849943	    -17.01905993	      7.13260517	     -1.68879734	      3.00591755	     18.00623446	     -5.30163762	    -12.85634648
      4.97000000	    -17.74940615	      2.73479122	      0.56411224	     -0.64105001	     -0.01074441	     -0.31946845	     39.80680289	     -3.62318677	     -4.34132042	    -49.05453334	      2.93381831	    -11.13078378	     15.30108518	     18.65205353	      4.87193110	     -6.52351603	    -16.47949047	      7.19301538	     -1.46050602	      3.10065373	     18.02910863	     -5.14664926	    -13.02123425
      4.97500000	    -17.71883079	      2.58915988	      0.62371296	     -0.63499938	     -0.01043247	     -0.31966202	     40.16870261	     -3.53870394	     -4.74767164	    -47.73907763	      3.11462857	    -11.10638730	     14.88624365	     17.91280744	      4.74967073	     -6.55900919	    -15.95885559	      7.23372194	     -1.10350914	      3.28166351	     17.95033101	     -5.02637801	    -13.21701746
      4.98000000	    -17.84260270	      2.50036669	      0.60759343	     -0.62895714	     -0.01039493	     -0.31981871	     40.71217450	     -3.45699547	     -5.02862181	    -46.41651255	      3.29385666	    -10.95687166	     14.76603841	     17.34040440	      4.68043256	     -6.61742616	    -15.44542321	      7.23913287	     -0.94299751	      3.28974495	     18.04692076	     -4.92649396	    -13.28588331
      4.98500000	    -17.77311602	      2.31142061	      0.70026450	     -0.62288010	     -0.01015562	     -0.32004533	     40.96447760	     -3.36616321	     -5.51780233	    -45.00255331	      3.44378214	    -10.84334205	     14.49441069	     16.58947676	      4.51436965	     -6.68879546	    -14.98295577	      7.31777931	     -0.54131877	      3.46316705	     17.92146001	     -4.77163591	    -13.57664286
      4.99000000	    -17.88502721	      2.22995766	      0.67450182	     -0.61682607	     -0.01024078	     -0.32014917	     41.45394391	     -3.28585564	     -5.81431047	    -43.62012616	      3.57577556	    -10.62477063	     14.40043161	     16.01716881	      4.44463213	     -6.75015466	    -14.49775356	      7.33647620	     -0.37437590	      3.48024460	     18.00341112	     -4.67630957	    -13.62211151
      4.99500000	    -17.80853142	      2.05651458	      0.76390802	     -0.61073907	     -0.01011752	     -0.32033091	     41.65483748	     -3.20487408	     -6.30002727	    -42.14510324	      3.69149052	    -10.41512675	     14.25193421	     15.28058686	      4.28686828	     -6.82118927	    -14.07986180	      7.40598859	      0.02381514	      3.63330083	     17.86899299	     -4.53725102	    -13.89114921
      5.00000000	    -17.81322754	      1.92881556	      0.78648485	     -0.60465142	     -0.01017542	     -0.32044305	     41.95119929	     -3.11372101	     -6.68712935	    -40.67446013	      3.77423822	    -10.14846508	     14.17517594	     14.62601288	      4.16673720	     -6.89755272	    -13.65600723	      7.44904847	      0.29763940	      3.73227828	     17.82863534	     -4.41496540	    -14.03273638
      5.00500000	    -17.83602400	      1.80340913	      0.82390958	     -0.59856539	     -0.01031734	     -0.32056126	     42.24507597	     -3.03345788	     -7.08725600	    -39.18459472	      3.83354920	     -9.85146922	     14.15843118	     14.01159280	      4.05145768	     -6.96097849	    -13.27171706	      7.49947736	      0.56608228	      3.80487152	     17.80480832	     -4.29818246	    -14.18594683
      5.01000000	    -17.93291113	      1.70317369	      0.81968742	     -0.59249050	     -0.01061211	     -0.32060484	     42.61226174	     -2.93505703	     -7.40931958	    -37.68801092	      3.86283491	     -9.50633474	     14.15853601	     13.49416234	      3.95506522	     -7.02325327	    -12.92398408	      7.52961232	      0.73696618	      3.81491767	     17.86304879	     -4.19502578	    -14.24832655
      5.01500000	    -17.88442435	      1.54158945	      0.91126959	     -0.58636109	     -0.01077791	     -0.32078241	     42.76388733	     -2.86205398	     -7.89764504	    -36.14983347	      3.87265601	     -9.17644240	     14.22700178	     12.83565820	      3.80678988	     -7.06964721	    -12.60312851	      7.62934113	      1.09148420	      3.87722663	     17.75923670	     -4.05240584	    -14.49086250
      5.02000000	    -17.89099785	      1.40477247	      0.94760675	     -0.58022333	     -0.01107122	     -0.32085749	     42.96708151	     -2.75575127	     -8.28143920	    -34.60787811	      3.85001292	     -8.82233426	     14.31729918	     12.24943007	      3.67211491	     -7.12963507	    -12.31279759	      7.70370242	      1.34234321	      3.89783652	     17.71864403	     -3.92093335	    -14.63192173
      5.02500000	    -17.91291597	      1.27115699	      0.99804819	     -0.57407922	     -0.01143734	     -0.32094242	     43.16753484	     -2.65756412	     -8.65439048	    -33.06697130	      3.80755296	     -8.44935875	     14.41327884	     11.70181141	      3.54301709	     -7.17816740	    -12.06375651	      7.78280005	      1.57717593	      3.90120968	     17.69383836	     -3.79245749	    -14.78002374
